Coordinates
version=1
nRows=14
nColumns=38
inDegrees=no

Units are S.I. units (second, meters, Newtons, ...)
If the header above contains a line with 'inDegrees', this indicates whether rotational values are in degrees (yes) or radians (no).

endheader
time	pelvis_tilt	pelvis_list	pelvis_rotation	pelvis_tx	pelvis_ty	pelvis_tz	hip_flexion_r	hip_adduction_r	hip_rotation_r	knee_angle_r	ankle_angle_r	subtalar_angle_r	mtp_angle_r	hip_flexion_l	hip_adduction_l	hip_rotation_l	knee_angle_l	ankle_angle_l	subtalar_angle_l	mtp_angle_l	lumbar_extension	lumbar_bending	lumbar_rotation	arm_flex_r	arm_add_r	arm_rot_r	elbow_flex_r	pro_sup_r	wrist_flex_r	wrist_dev_r	arm_flex_l	arm_add_l	arm_rot_l	elbow_flex_l	pro_sup_l	wrist_flex_l	wrist_dev_l
0	2.80815	1.54398	1.79216	0.733614	1.34758	0.9449	-0.135487	-0.00369207	-0.0982642	0.169501	0.259069	0	0	0.481051	-0.000456345	-0.339698	0.211516	0.139202	0	0	-0.0315436	0.0114025	-0.0579454	-0.0314442	-0.149391	-0.163651	0.273417	1.46394	0	0	-0.0678206	-0.31142	-0.400438	0	1.5708	0	0
0.01	2.79388	1.53706	1.80581	0.734629	1.33601	0.942587	-0.138842	-0.00925688	-0.097192	0.175523	0.26641	0	0	0.466636	0.018764	-0.3246	0.126553	0.131499	0	0	-0.0230018	0.00919216	-0.0599522	-0.0302518	-0.149757	-0.162053	0.270197	1.46271	0	0	-0.0699942	-0.310041	-0.397486	0	1.5708	0	0
0.02	2.76574	1.53198	1.83256	0.735488	1.32373	0.940421	-0.142307	-0.0154077	-0.10011	0.186949	0.275588	0	0	0.447903	0.0368112	-0.297845	0.0447436	0.118946	0	0	-0.0164474	0.00635904	-0.0615075	-0.0305577	-0.149699	-0.158844	0.269084	1.4581	0	0	-0.0733687	-0.308947	-0.398799	0	1.5708	0	0
0.03	2.79576	1.52656	1.80131	0.736154	1.31131	0.938142	-0.143307	-0.0189634	-0.102629	0.201362	0.283762	0	0	0.436958	0.0480193	-0.274906	0	0.114364	0	0	-0.00896265	0.00548052	-0.0629445	-0.0310884	-0.149125	-0.15778	0.268136	1.45592	0	0	-0.0768586	-0.307872	-0.39984	0	1.5708	0	0
0.04	2.7681	1.52633	1.83351	0.736885	1.29995	0.936129	-0.1464	-0.0159966	-0.097718	0.221654	0.286558	0	0	0.448778	0.05456	-0.26027	0	0.121228	0	0	-0.0120667	0.00199303	-0.0656996	-0.0305876	-0.147062	-0.156772	0.267641	1.45326	0	0	-0.082823	-0.306629	-0.399942	0	1.5708	0	0
0.05	2.8029	1.52387	1.79929	0.737493	1.28753	0.934264	-0.14697	-0.0186218	-0.102806	0.242959	0.292989	0	0	0.453913	0.0578375	-0.252334	0	0.127507	0	0	-0.00871747	0.00161064	-0.0675268	-0.0308435	-0.145542	-0.155796	0.266706	1.45068	0	0	-0.0845816	-0.306586	-0.400332	0	1.5708	0	0
0.06	2.82392	1.52222	1.77744	0.737997	1.27457	0.932696	-0.147461	-0.0223971	-0.107237	0.266905	0.298142	0	0	0.455394	0.0607727	-0.249584	0	0.127345	0	0	-0.00554833	0.00100992	-0.067828	-0.0314479	-0.143831	-0.156221	0.265568	1.44707	0	0	-0.0865313	-0.306353	-0.400333	0	1.5708	0	0
0.07	2.84084	1.5212	1.75519	0.738342	1.26059	0.931553	-0.150627	-0.0343555	-0.117894	0.28961	0.306657	0	0	0.450135	0.0609676	-0.25259	0	0.122014	0	0	0.000241217	0.000881173	-0.0665144	-0.0323485	-0.142168	-0.157991	0.264234	1.44255	0	0	-0.0831947	-0.308076	-0.400371	0	1.5708	0	0
0.08	2.79288	1.52428	1.80095	0.738565	1.24721	0.93066	-0.155666	-0.0408145	-0.116385	0.316115	0.307642	0	0	0.461396	0.0591736	-0.261777	0.0471792	0.12408	0	0	-0.00194973	-0.00278593	-0.0636441	-0.0334973	-0.139228	-0.159439	0.262527	1.43861	0	0	-0.0836462	-0.309637	-0.402255	0	1.5708	0	0
0.09	2.80593	1.52483	1.78456	0.738582	1.23349	0.92953	-0.155269	-0.0442491	-0.109241	0.346309	0.304997	0	0	0.480982	0.0512938	-0.277742	0.118372	0.141495	0	0	0.000715779	-0.00389452	-0.059333	-0.035942	-0.136791	-0.159967	0.260161	1.43316	0	0	-0.0858052	-0.310789	-0.406047	0	1.5708	0	0
0.1	-1.99891	1.55441	0.308528	0.740474	1.21827	0.934399	-0.181287	-0.0313262	-0.124179	0.415058	0.2939	0	0	0.444625	0.0254196	-0.272556	0.170323	0.161617	0	0	-0.0423004	0.0270739	-0.0585422	-0.0325078	-0.143908	-0.155884	0.258573	1.4226	0	0	-0.0847418	-0.299431	-0.390563	0	1.5708	0	0
0.11	-2.14952	1.55538	0.45078	0.740127	1.20366	0.932998	-0.170928	-0.0407892	-0.114305	0.459128	0.286535	0	0	0.455092	0.020566	-0.279392	0.22227	0.183952	0	0	-0.0342613	0.0228456	-0.0510639	-0.036805	-0.141875	-0.155627	0.255477	1.4184	0	0	-0.0922851	-0.300631	-0.397612	0	1.5708	0	0
0.12	2.72277	1.53128	1.847	0.738136	1.18954	0.926865	-0.141647	-0.068415	-0.0914657	0.471585	0.280178	0	0	0.496274	0.0357406	-0.295363	0.264161	0.189289	0	0	0.00984084	-0.0110383	-0.0407211	-0.0462417	-0.131944	-0.156691	0.252266	1.41706	0	0	-0.107658	-0.312398	-0.41788	0	1.5708	0	0
0.13	2.65597	1.52922	1.90846	0.73852	1.17471	0.925772	-0.122362	-0.0834195	-0.0924912	0.531956	0.262945	0	0	0.49632	0.0372828	-0.299116	0.284409	0.166369	0	0	0.0178057	-0.0162899	-0.0385733	-0.0495287	-0.130432	-0.156373	0.249468	1.41723	0	0	-0.116172	-0.313392	-0.433939	0	1.5708	0	0
